<?xml version="1.0" encoding="UTF-8"?>
<svg version="1.1" viewBox="0 200 1800 1500" width="900" height="700" xmlns="http://www.w3.org/2000/svg">
<path transform="translate(0)" d="m0 0h2e3v2e3h-2e3z" fill="#FDFAF3"/>
<path transform="translate(1365,825)" d="m0 0h48l1 12v126l-1 5 8-7 39-39 1-2h63l-2 4-4 2v2l-8 7-9 9-7 8-32 32h-2l1 4 14 15 33 33 3 1 9-16 4-8 4 1 11 7 13 5 4 1h10l7-3 2-4-1-6-5-4-25-11-10-6-10-9-4-5-4-13v-10l3-12 5-9 7-7 15-8 11-3 7-1h24l20 4 14 5 2 3-15 30-5-1-9-4-8-2-12-1-10 2-2 4v5l1 3 6 2 11 4 17 6 13 8 6 5 7 11 2 6v21l-4 11-6 9-7 6-12 6-10 3-18 2h-14l-16-2-10-2h-59l-5-5-16-15-7-7v-2l-4-2v-2h-2v-2h-2v-2h-2v-2h-2v-2l-4-2-11-11-2-1 1 4-1 51h-47l-3-4-6 3-16 4-11 1h-13l-16-3-9-4-11-6-10-8-8-8-7-10-5-9-2 10-6 13-9 10-11 7-18 6-18 2h-21l-18-2-16-5-11-6-9-9-6-10-4-11-4 9-7 9-9 8-16 8-16 4-14 1h-89v-225h84l16 3 16 7 11 8 7 10 4 11 1 5v25l-4 13-6 10-7 7-8 5-1 2 10 2 12 5 9 7 6 7 3 5v-47l3-1h45l1 1 1 78 2 10 5 10 10 5 12 1 12-3 5-2 2-4 4-11 1-11 1-73h48l1 41 7-12 11-12 11-9 15-8 16-4h23l16 3 13 5z"/>
<path transform="translate(713,867)" d="m0 0h47l1 1v52h29v23l-1 2h2l2-5 10-10 14-9 12-4 5-1h23l13 3 13 7 6 5 3 1v-12h48v140h-47l-1-1v-14l-11 9-14 7-14 3h-14l-12-2-13-5-12-8-8-8-4-5 5 15-1 5-8 4-12 3-7 1h-14l-13-3-11-6-8-9-5-11-3-12-1-19v-47h-19l-2-6-3 7-5-1-10-4-7-2-15-1-8 2-1 8 4 5 14 5 19 7 11 7 6 5 6 9 3 9v20l-3 10-6 9-8 7-12 6-16 4-10 1h-18l-18-3-19-8-4-2v8l-1 1h-48v-56l-1-31-7-14-4-2-10-3-11 1-10 6-7 8-2 5-1 7v78l-1 1h-48v-140h49v13l6-4 10-7 8-4 7-2h19l14 3 16 7 9 7 7 10 3 6 2 8 1 12v67l6-11 7-12 4 1 10 7 12 5 5 1h11l6-3 2-4-1-6-5-4-25-11-10-6-10-9-4-5-4-12v-13l4-13 7-9 9-7 13-6 14-3h24l20 3 5 2 1-1 20-1v-51z"/>
<path transform="translate(383,834)" d="m0 0h50l1 1v224l-1 1h-51v-225z"/>
<path transform="translate(1365,940)" d="m0 0h1v99l-2-2-8-16-2-2-9 4-5 1h-16l-10-4-10-10-4-8-2-9v-7l3-10 6-10 9-7 7-3 12-1 12 2 9 4 2-6 5-9z" fill="#FEFBF4"/>
<path transform="translate(853,957)" d="m0 0h14l9 3 9 7 6 10 2 8v11l-4 11-7 9-12 6-5 1h-11l-10-3-9-7-7-14v-17l4-10 7-8 8-5z" fill="#FEFBF4"/>
<path transform="translate(999,967)" d="m0 0h24l14 3 7 4 6 7 2 6v15l-4 8-7 6-9 3-27 2-6-1-1-52z" fill="#FEFBF4"/>
<path transform="translate(999,874)" d="m0 0h9l16 3 6 4 5 6 2 6v10l-3 8-5 6-9 4-10 2h-11z" fill="#FEFBF4"/>
<path transform="translate(780,956)" d="m0 0 3 1-3 9-3 17v14l3 17v5l-2 1h-11l-4-5-2-5v-53z" fill="#FEFBF4"/>
<path transform="translate(980,1745)" d="m0 0h7l6 4 3 4 2 8-1 12-5 8-4 3h-9l-7-6-3-10 1-12 3-6 5-4z"/>
<path transform="translate(1079,1107)" d="m0 0h11l8 1 1 3v24l-4 8-4 3h-14l-4-4v-2l14 1 4-2 3-5-1-1-5 3h-10l-5-4-3-7v-7l3-7z"/>
<path transform="translate(707,1107)" d="m0 0h10l5 1 3-1 2 4v23l-3 8-5 4-8 1-8-2-2-5 14 1 4-2 4-7-7 4h-10l-5-4-3-7v-7l3-7z"/>
<path transform="translate(776,1107)" d="m0 0h11l4 1 4-1 1 1v19l-1 7-2 1-7 1h-9l-6-4-3-7v-8l3-6z"/>
<path transform="translate(582,1106)" d="m0 0 9 1 5 5 3 5v9l-6 8-4 2h-10l-7-6-2-6v-7l4-7z"/>
<path transform="translate(1211,1106)" d="m0 0 8 1 5 5 3 6v8l-6 8-4 2h-10l-6-5-3-7 1-9 4-6z"/>
<path transform="translate(1055,1702)" d="m0 0 9 2 5 6 1 7-6 2h-16l3 6 2 1h9l4-2h3l-2 5-5 3h-10l-7-6-2-7 1-8 6-7z"/>
<path transform="translate(1267,1107)" d="m0 0 4 1 4 9 2 9h2l1-5 4-9 4 1 6 12 6-17 4-1 1 3-8 24-1 1h-5l-4-12v-2l-3 3-4 11-5-1-5-13-3-10z"/>
<path transform="translate(981,1750)" d="m0 0 6 1 4 5 1 2v13l-3 6-3 2-7-1-4-7v-13l3-6z" fill="#FEFBF4"/>
<path transform="translate(946,1745)" d="m0 0h7l6 4 2 4-1 10-8 10-4 2-1 3 14 1 1 4-1 1h-22l-1-4 9-11 7-8 1-7-2-3h-7l-4 3h-5l2-5z"/>
<path transform="translate(1016,1745)" d="m0 0h8l5 4 2 5v6l-5 8-9 11h14l1 4-1 1h-23l1-5 11-13 5-7-1-7-1-1h-7l-5 4h-3l1-5 5-4z"/>
<path transform="translate(1042,1745)" d="m0 0h15l4 2-1 4-6 7 7 6 2 4v7l-4 6-6 3h-10l-3-4 1-3 4 1h9l3-4-1-7-3-2h-9l1-6 5-4 2-4-11-1-1-4z"/>
<path transform="translate(1404,1096)" d="m0 0h4l1 3v11l5-3h8l5 4 1 18v5l-5 1-2-21-1-1h-10l-1 22h-5z"/>
<path transform="translate(849,1107)" d="m0 0h11l3 3 1 4v21l-5-1-1-20-4-2-7 1-1 2-1 20h-5v-27h7z"/>
<path transform="translate(986,1703)" d="m0 0h11l3 3 1 4v21l-5-1-1-20-1-2-11 1-1 22h-5v-27z"/>
<path transform="translate(711,1111)" d="m0 0 7 2 3 3 1 8-3 5-4 2h-7l-4-5-1-2v-7l5-5z" fill="#FEFBF4"/>
<path transform="translate(1210,1111)" d="m0 0 7 1 4 4 1 8-3 5-3 2h-7l-5-5-1-2v-6l5-6z" fill="#FEFBF4"/>
<path transform="translate(937,1703)" d="m0 0h10l4 4-1 3-5-2h-9l2 5 8 3 5 3 1 7-4 5-2 1h-10l-6-4v-4l4 1 9 2 4-2-1-3-12-5-3-5 1-5z"/>
<path transform="translate(1080,1112)" d="m0 0h9l4 4 1 8-3 5-4 2h-7l-4-5-1-2v-7z" fill="#FEFBF4"/>
<path transform="translate(583,1111)" d="m0 0 7 2 4 5-1 9-5 4h-7l-5-5-1-2v-6l5-6z" fill="#FEFBF4"/>
<path transform="translate(966,1106)" d="m0 0 9 1 3 3v3l-12-1-5 3-1 9 3 5 2 1h10l4-1-2 5-4 2h-10l-7-6-2-5v-7l4-8z"/>
<path transform="translate(780,1111)" d="m0 0 7 1 3 3v12l-3 3-2 1h-7l-4-4-1-3v-7l4-5z" fill="#FEFBF4"/>
<path transform="translate(1024,1702)" d="m0 0 10 2 2 5-6-1h-8l-4 4-1 7 3 6 4 2 8-1 4-1-2 5-4 2h-9l-5-3-4-5-1-3v-7l4-8z"/>
<path transform="translate(1350,1100)" d="m0 0h4l2 6 6 4-2 2h-5l1 18 4 2v3h-8l-2-1-1-4-1-17-4-2v-3l5-2z"/>
<path transform="translate(1154,1107)" d="m0 0h5v4l-10 2-1 4-1 18h-5l-1-26z"/>
<path transform="translate(651,1107)" d="m0 0h7v4l-10 2-1 3-1 18-5 1-1-26 4-1 3 1z"/>
<path transform="translate(962,1704)" d="m0 0 5 1v26h-5l-1-3v-23z"/>
<path transform="translate(908,1108)" d="m0 0h4v27h-4z"/>
<path transform="translate(1055,1707)" d="m0 0 6 1 4 5-1 2h-15l1-4z" fill="#FEFBF4"/>
</svg>
